<?xml version="1.0" encoding="utf-8"?>
<!-- Generator: Adobe Illustrator 21.1.0, SVG Export Plug-In . SVG Version: 6.00 Build 0)  -->
<svg version="1.1" id="Layer_1" xmlns="http://www.w3.org/2000/svg" xmlns:xlink="http://www.w3.org/1999/xlink" x="0px" y="0px"
	 viewBox="0 0 1000 1000" style="enable-background:new 0 0 1000 1000;" xml:space="preserve">
<style type="text/css">
	.st0{fill:#FFFFFF;}
</style>
<g>
	<path class="st0" d="M500,145.1L192.7,322.6v354.9L500,854.9l307.3-177.4V322.6L500,145.1z M487.5,818.8l-79.1-45.7l0-138.8
		l-25-14.7l0,139.1l-71.3-41.2l0-139.6l-25-15.2l0,140.3L217.7,663V351.4l269.8,155.8V818.8z M377.6,414.9L500,344.2l-25-14.4
		l-122.4,70.7l-122.4-70.7L500,174l269.8,155.8L500,485.6L377.6,414.9z M782.3,663l-122.4,70.7V592.3l-25,14.4v141.4l-122.4,70.7
		V507.2l122.4-70.7v141.4l25-14.4V422.1l122.4-70.7V663z"/>
</g>
<g>
	<g>
		<polygon class="st0" points="525,329.8 500,315.3 573.1,273.1 598.1,287.6 		"/>
	</g>
</g>
</svg>
