<?xml version="1.0" encoding="utf-8"?>
<!-- Generator: Adobe Illustrator 21.1.0, SVG Export Plug-In . SVG Version: 6.00 Build 0)  -->
<svg version="1.1" xmlns="http://www.w3.org/2000/svg" xmlns:xlink="http://www.w3.org/1999/xlink" x="0px" y="0px"
	 viewBox="0 0 1000 1000" style="enable-background:new 0 0 1000 1000;" xml:space="preserve">
<style type="text/css">
	.st0{display:none;}
	.st1{display:inline;}
	.st2{fill:#FFFFFF;}
	.st3{fill-rule:evenodd;clip-rule:evenodd;fill:#FFFFFF;}
</style>
<g id="Layer_2" class="st0">
	<rect class="st1" width="1000" height="1000"/>
</g>
<g id="Layer_1">
	<g>
		<path class="st2" d="M264.1,744.6l-2.9-3.2c0.7-0.7,1.2-1.6,1.5-2.5s0.4-1.8,0.3-2.8s-0.4-1.9-0.8-2.9c-0.5-1-1.1-1.9-1.9-2.8
			c-1.1-1.2-2.3-2.1-3.6-2.7c-1.3-0.6-2.7-0.9-4.1-0.8c-1.4,0.1-2.9,0.4-4.4,1.2c-1.5,0.7-3.1,1.8-4.6,3.2c-1.5,1.4-2.8,2.8-3.6,4.3
			c-0.9,1.5-1.4,2.9-1.6,4.3s-0.1,2.8,0.4,4.2c0.4,1.4,1.2,2.6,2.3,3.8c0.8,0.9,1.7,1.7,2.6,2.2c0.9,0.6,1.9,0.9,2.8,1.1
			c1,0.2,1.9,0.1,2.9-0.1c1-0.3,1.9-0.7,2.8-1.4l2.9,3.2c-1.4,1-2.8,1.7-4.3,2.1c-1.5,0.4-2.9,0.4-4.4,0.2c-1.5-0.2-2.9-0.8-4.3-1.6
			c-1.4-0.8-2.7-1.9-3.9-3.2c-1.5-1.7-2.6-3.5-3.3-5.4c-0.7-1.9-0.9-3.8-0.7-5.8c0.2-1.9,0.8-3.9,1.9-5.8c1.1-1.9,2.5-3.7,4.4-5.4
			c1.9-1.7,3.8-3,5.8-3.8c2-0.9,4-1.3,5.9-1.3c1.9,0,3.8,0.4,5.7,1.3c1.8,0.8,3.5,2.1,5,3.8c1.1,1.3,2,2.6,2.7,4.1
			c0.6,1.5,1,2.9,1.1,4.4c0.1,1.5-0.1,2.9-0.5,4.3C265.9,742.1,265.1,743.4,264.1,744.6z"/>
		<path class="st2" d="M294.1,800l-3.7-2.9l3-8.7c0.2-0.8,0.4-1.5,0.4-2.3c0-0.8-0.1-1.5-0.2-2.3s-0.5-1.4-0.9-2.1
			c-0.4-0.7-1-1.2-1.6-1.8l-6.2-4.9l-8.5,10.8l-3.4-2.6l19.9-25.4l11.2,8.8c0.7,0.5,1.3,1.1,1.9,1.6c0.6,0.5,1.1,1,1.6,1.6
			c0.5,0.5,0.9,1.1,1.2,1.7c0.3,0.6,0.6,1.3,0.7,2c0.2,1.3,0.2,2.6-0.2,3.8c-0.4,1.3-0.9,2.4-1.7,3.4c-0.7,0.9-1.5,1.6-2.3,2.1
			c-0.8,0.5-1.7,0.9-2.7,1.1c-0.9,0.2-1.9,0.2-2.9,0c-1-0.2-2-0.5-3-1l0,0.1c1.3,1.9,1.5,4.5,0.5,7.8L294.1,800z M287.2,772.1
			l7.5,5.9c1,0.8,2,1.4,2.9,1.9c0.9,0.4,1.7,0.7,2.4,0.7c0.8,0,1.5-0.1,2.1-0.5c0.7-0.4,1.3-1,2-1.8c1.1-1.5,1.5-2.9,1.2-4.3
			c-0.3-1.4-1.4-2.8-3.3-4.2l-8-6.3L287.2,772.1z"/>
		<path class="st2" d="M344.3,830.4l-21.2-11.5l15.5-28.3l20.5,11.2l-1.8,3.4l-16.8-9.1l-4.7,8.6l15.7,8.5l-1.8,3.4l-15.7-8.5
			l-5.2,9.6l17.4,9.5L344.3,830.4z"/>
		<path class="st2" d="M401.3,853.2l-4.6-1.6l-0.3-10.5l-12.8-4.5l-6.6,8.1l-4.2-1.5l22.3-26.4l4.4,1.5L401.3,853.2z M396.3,837.5
			l-0.5-16l-10,12.3L396.3,837.5z"/>
		<path class="st2" d="M460.3,837l-10.5-1.9l-4.9,28l-4.2-0.7l4.9-28l-10.4-1.8l0.7-3.8l25.2,4.4L460.3,837z"/>
		<path class="st2" d="M493.6,868l-4.2-0.2l1.2-32.2l4.2,0.2L493.6,868z"/>
		<path class="st2" d="M553,832.8l-9.3,33.4l-4.4,0.4l-15.7-30.8l4.6-0.5l12.9,26.5l7.4-28.6L553,832.8z"/>
		<path class="st2" d="M611.8,852.5l-23.3,6.3l-8.4-31.2l22.6-6.1l1,3.7l-18.4,5l2.5,9.5L605,835l1,3.7l-17.2,4.6l2.8,10.6l19.1-5.1
			L611.8,852.5z"/>
		<path class="st2" d="M697.3,813.4l-3.5,2l-13.6-23.8l5.6,28.4l-3.3,1.9l-21.6-19.3l13.6,23.8l-3.5,2l-16-28l5.6-3.2l20.9,19
			l-5.7-27.7l5.6-3.2L697.3,813.4z"/>
		<path class="st2" d="M730.5,789.4l-3.3,2.6l-20-25.3l3.3-2.6L730.5,789.4z"/>
		<path class="st2" d="M775.5,746.9l-3,3.2l-30.1-5.2l18.5,17.5l-2.8,2.9l-23.4-22.2l3-3.2l30.1,5.3l-18.5-17.5l2.8-3L775.5,746.9z"
			/>
		<path class="st2" d="M799.3,687.4c9,6,10.5,13.6,4.4,22.7l-5.7,8.5l-26.8-17.9l5.7-8.5C783,683.1,790.5,681.5,799.3,687.4z
			 M796.9,691.1c-1.6-1.1-3.1-1.8-4.5-2.4c-1.5-0.5-2.9-0.7-4.2-0.5c-1.4,0.2-2.7,0.8-4.1,1.8c-1.3,1-2.6,2.5-4,4.4l-3.3,4.9
			l20.4,13.7l3.3-4.9c1.3-2,2.2-3.7,2.6-5.3c0.4-1.6,0.4-3.1,0-4.5c-0.4-1.4-1.1-2.6-2.2-3.8C799.8,693.3,798.5,692.2,796.9,691.1z"
			/>
	</g>
	<g>
		<path class="st2" d="M595,447.8c1.9,1,3.9,1.8,6.1,2.3s4,0.7,5.4,0.6c1.4-0.4,3.1-1.5,5.1-3.3c2-1.9,3.8-3.9,5.5-6.3
			c1.7-2.3,3.2-4.7,4.4-7c1.2-2.4,1.8-4.3,1.6-5.7c0.1-1.2-0.5-2.6-2-4.3c-1.5-1.7-3.3-3.2-5.6-4.5c-2.3-1.3-4.6-2.3-7.1-2.9
			c-2.5-0.6-4.5-0.7-6.1-0.3c-1.6,0.6-3.2,1.9-4.9,3.7c-1.6,1.8-3,3.9-4.3,6.3c-1.2,2.4-2.2,4.8-3.1,7.3c-0.8,2.5-1.3,4.4-1.4,5.9
			c-0.1,1.7,0.5,3.2,1.7,4.7C591.6,445.6,593.1,446.8,595,447.8z"/>
		<path class="st2" d="M997.6,443.7c-0.1-1.3-0.7-2.1-1.7-2.5c-1-0.4-2.2-0.2-3.7,0.7c-1.5,0.9-3.1,2.4-4.8,4.7
			c-2.7,4.1-6.8,7.7-12.1,10.8c-5.3,3.1-11,4.6-17,4.4c-0.1-5.7-1.6-10.7-4.6-15c-3-4.3-7.7-6.8-14-7.7c-0.7-2.8-2.5-4.9-5.4-6.3
			c-2.9-1.4-6-2-9.3-1.7c-5,0.5-9.5,2.1-13.5,5c-1.5-9.8-3.4-19.6-5.6-29.2c0.7-0.9,1.3-1.7,2-2.6c14.5-18.8,26-34.1,34.4-45.9
			c8.4-11.8,14-20.7,16.9-26.9c2.9-6.1,4-11,3.2-14.5c-0.6-1.6-1.9-3.6-3.8-5.9c-1.9-2.3-4.4-4.4-7.6-6.3c-3.2-1.9-6.8-3.2-11-4
			c-4.1-0.8-8.6-0.6-13.2,0.5c-5.6,1.7-12.2,7.7-19.9,18c-6.3,8.4-12.6,18.3-19.1,29.5C827.5,196.2,678.6,88.2,504.5,88.2
			C277.1,88.2,92.7,272.5,92.7,500c0,8,0.2,15.9,0.7,23.8c-8,8.7-15.8,17.7-23.2,26.9c-23,28.5-41.2,57.3-54.8,86.4
			c-1.3,2.9-2.8,6.6-4.7,11.2c-1.9,4.6-3.3,9.5-4.4,14.7c-1.1,5.2-1.6,10.1-1.6,14.9c0,4.7,1,8.9,3.2,12.3c1.1,2,3.2,3.7,6.2,4.9
			c3,1.2,6.2,2.2,9.4,2.8c3.3,0.6,6.2,0.7,8.8,0.3c2.6-0.4,4.1-1.2,4.6-2.5c1.1-4.4,2.3-9.3,3.5-14.6c1.2-5.3,3.4-11.8,6.7-19.5
			c19.8-11,39.5-21.3,59-30.9c2.3-1.1,4.5-2.2,6.8-3.3c53.7,165.1,208.8,284.4,391.7,284.4c225.9,0,409.4-181.9,411.8-407.2
			c0.3,0,0.6,0.1,0.9,0.1c4.2,0.6,7.7,0.2,10.5-1c6.2-2.5,11.5-5.8,15.8-10.1c4.3-4.2,7.7-8.8,10.4-13.9c11.7-2.5,21-6.7,27.7-12.6
			c6.8-5.9,11.7-12.2,15-19C997.4,446.5,997.7,445,997.6,443.7z M907.6,439.2c-2.9,2.6-5.5,5.6-7.8,9c-2.6,3.9-4.7,8-6.3,12.3
			c-1.7,1.6-3.9,3.3-6.4,5.2c-4.6,3.4-9.3,6.7-14.2,9.9c-4.9,3.2-9.2,5.7-13.1,7.5c-3.9,1.8-6.3,2.1-7.1,1c-1.3-1.1-1.2-3.7,0.3-7.9
			c19.4-25.6,35.8-47.2,49.4-64.8C904.5,420.5,906.2,429.8,907.6,439.2z M870.5,436.2c4.3-8.3,8.9-17,13.9-26.2
			c4-7.3,8-14.5,12.1-21.7c0.9,3.1,1.7,6.2,2.5,9.2c-3.5,4.8-7,9.6-10.5,14.4C882.3,420.4,876.3,428.4,870.5,436.2z M899.7,382.8
			c5.2-8.8,10.3-17.3,15.3-25.3c5-8,9.6-14.9,13.7-20.6c4.1-5.8,7.7-10.3,10.6-13.5c2.9-3.3,5-4.6,6.3-4c1.3,0.8,1.1,3.3-0.6,7.2
			c-1.7,4-4.3,9-7.9,15.1c-3.6,6.1-8.1,13-13.3,20.8c-5.3,7.8-10.9,15.8-16.8,24.2c-1.5,2.1-3,4.2-4.6,6.4c-0.9-3.3-1.8-6.6-2.8-9.9
			C899.6,383,899.7,382.9,899.7,382.8z M97,500c0-55,10.8-108.4,32-158.6c20.5-48.5,49.9-92.1,87.3-129.5
			c37.4-37.4,81-66.8,129.5-87.3c50.2-21.3,103.6-32,158.6-32c55,0,108.4,10.8,158.6,32c48.5,20.5,92.1,49.9,129.5,87.3
			c37.4,37.4,66.8,81,87.3,129.5c1.7,4.1,3.4,8.2,5,12.4c-0.5,0.9-1,1.9-1.6,2.8c-7.9,14.5-15.4,29.8-22.5,46
			c-7.1,16.2-13.1,31-17.8,44.4c-3.3-1.6-6.9-2.5-10.8-2.8c-4-0.2-7.5,0-10.5,0.8c-2.6,0.7-6,2.9-10.4,6.5c-4.3,3.6-8.5,8-12.4,13
			c-2.2,2.8-4.1,5.6-5.9,8.5c-2,2.2-4.1,4.3-6.2,6.4c-2.9-40-14.1-77.7-31.9-111.3c5.3-7.6,9.6-14.6,12.9-20.8
			c3.7-7,5.3-12.5,5-16.3c-0.3-3.3-2.1-6.1-5.3-8.3c-3.2-2.2-6.9-3.8-11-4.7c-4.2-0.9-8.4-1.3-12.7-1.2c-4.3,0.2-7.6,0.8-9.9,2
			c-2.7,1.2-5.4,2.7-8.2,4.7c-51.9-65-131.7-106.6-221.3-106.6c-127.3,0-235,84-270.6,199.6c-30.5,15.2-59.4,34-86.8,56.5
			c-17.6,14.5-34.2,29.9-49.7,46.4C97.1,513,97,506.5,97,500z M835.1,480c-5.4,8.9-9.9,14.8-13.4,17.8c-3.6,3-6,3.9-7.3,2.8
			c-1.3-0.8-1.3-3.4,0-7.5c1.3-4.2,3.3-8.6,6-13.3c2.7-4.7,5.8-9,9.2-13.1c3.5-4,6.6-6.5,9.4-7.5c-1.5,4.4-2.6,8.3-3.3,11.4
			C835,473.8,834.8,476.9,835.1,480z M225.7,500c0-20.6,2.2-40.8,6.6-60.5c14.1-9.9,28.3-18.4,42.7-25.3c18-8.7,36-13.9,53.9-15.5
			c8.8-0.8,14.8,0.8,18.1,4.8c3.3,4,4.6,9.5,4.1,16.6c-0.6,7.1-2.7,15.4-6.4,24.9c-3.7,9.5-8,19.4-12.9,29.7
			c-4.9,10.3-10.1,20.6-15.8,31.1c-5.6,10.5-10.6,20-15.1,28.7c-18.9,4.8-39.5,11.3-61.9,19.5c-2.5,0.9-5.1,1.9-7.6,2.8
			C227.6,538.2,225.7,519.3,225.7,500z M227.4,558.3c-18.5,7-37.1,14.6-55.7,22.7c-20.8,9.1-40.8,18.7-59.9,28.6
			c-3.6-12.9-6.5-25.9-8.8-39c6.7-8.9,13.8-17.8,21.2-26.8c14.5-17.6,29.9-34.7,46.3-51.4c16.4-16.7,33.4-31.7,51-45.1
			c1.9-1.4,3.7-2.8,5.6-4.2c-3.7,18.4-5.7,37.3-5.7,56.8C221.4,520,223.5,539.5,227.4,558.3z M266.4,568.8c0.2,1.5,0.9,2,2.2,1.3
			c2-1.1,4.6-2.4,7.5-3.9c0.4-0.2,0.7-0.3,1.1-0.5c4.1-1.2,8.3-2.3,12.5-3.5c-3,7-6.6,14.5-10.6,22.3c-4,7.9-8.2,15.8-12.5,23.9
			c-3.4,6.4-6.9,12.7-10.3,18.8c-3.1-6.1-6-12.3-8.7-18.6c-4.2-10-7.9-20.2-10.9-30.6C246.5,574.8,256.4,571.7,266.4,568.8z
			 M281,656.7c2.5-3.3,6.4-9.5,11.9-18.6c5.4-9.1,11.6-20,18.6-32.7c6.9-12.7,14.3-26.7,22.1-42c3.7-7.2,7.3-14.4,10.8-21.6
			c25.2-8,50.3-16,75-23.8c29.1-9.3,58.8-18.3,89.1-27c-4.7,6.2-9.6,13.8-14.8,22.9c-5.1,9.1-9.8,18.8-14,29.1
			c-4.2,10.3-7.5,20.7-9.9,31.1c-2.4,10.4-3.2,19.9-2.4,28.4c0.5,5,2.2,8.2,5.2,9.6c3,1.4,6.3,1.8,9.8,1.1c3.5-0.7,6.8-2,9.7-3.9
			c2.9-1.9,4.4-3.6,4.6-5.1c2.4-23.2,8.7-45.6,18.9-67.3c10.2-21.6,22.3-42.7,36.4-63.1c14-20.4,29-40.2,44.8-59.4
			c15.8-19.2,30.4-37.9,43.8-56.1c2.1-3.1,1.8-5.3-1-6.7c-2.8-1.4-6.5-2.2-11.2-2.2c-4.7,0-9.5,0.5-14.4,1.7
			c-4.9,1.2-8.3,2.9-10.3,5.3c-4.8,5-10.8,12.2-17.9,21.6c-7.2,9.4-14.8,19.8-22.8,31.4c-8,11.5-16.1,23.5-24.2,36
			c-8.1,12.5-15.4,24.3-22.1,35.4c-29.1,8.4-57.9,16.3-86.3,23.7c-24.7,6.4-50.7,13.2-77.8,20.2c1.1-2.2,2.1-4.5,3.1-6.7
			c7-15.2,13.3-29.9,18.9-44.2c1.9-4.8,3.6-9.4,5.2-13.9c0.3-0.5,0.6-1,0.9-1.4c7.4-11,14.6-20.8,21.7-29.6
			c7.1-8.8,13.3-15.7,18.6-20.7c2.6-2.6,3.8-4.7,3.4-6.1c-0.4-1.4-1.8-2.3-4.2-2.7c-2.4-0.4-5.5-0.3-9.1,0.3
			c-3.7,0.6-7.5,1.5-11.4,2.7c-4,1.2-7.6,2.6-10.9,4.2c-0.7,0.3-1.3,0.7-1.9,1c-1.9-4.6-4.7-8.4-8.5-11.3
			c-4.9-3.8-11.5-6.4-19.6-7.9c-8.1-1.4-17.3-1.6-27.6-0.7c-30.3,2.8-60.9,11.6-91.9,26.5c2.5-7.6,5.2-15.1,8.4-22.4
			c14-33.2,34.2-63,59.8-88.6s55.4-45.7,88.6-59.8c34.4-14.5,70.9-21.9,108.5-21.9c37.6,0,74.2,7.4,108.5,21.9
			c33.2,14,63,34.2,88.6,59.8c7.4,7.4,14.3,15.1,20.7,23.2c-4.1,3.3-8.4,7.3-12.8,12.2c-8.7,9.7-17.4,20.9-26.2,33.6
			c-8.8,12.8-17.1,26.3-25,40.5c-7.9,14.3-14.9,27.6-21.1,40.2c-5.9,12.1-10.6,22.7-14.1,31.8c-3.9,4.2-7.9,8-12,11.5
			c-4.1,3.5-7.9,6.5-11.4,8.9c-3.5,2.5-6.5,4.4-9.2,5.7c-2.6,1.3-4.3,1.8-5.1,1.4c-1-0.6-1-2.5,0.2-5.8c1.1-3.2,2.5-6.8,4-10.8
			c1.5-4,3.1-7.9,4.7-11.7c1.6-3.9,2.4-6.7,2.4-8.7c0.1-1.9-0.5-3.5-1.5-4.9c-1.1-1.3-2.4-2.5-4.1-3.4c-1.6-0.9-3.5-1.7-5.4-2.4
			c-2-0.7-3.8-1.1-5.5-1.5c-1.9-0.1-4,1.3-6.1,4.1c-2.1,2.8-4.2,6.4-6.2,10.6c-2,4.3-3.7,8.9-5,13.9c-1.3,5-2,9.6-2.2,13.7
			c-0.1,4.3,1,8.1,3.4,11.4c2.3,3.3,5.2,5.9,8.6,8c3.4,2.1,6.9,3.6,10.5,4.4c3.5,0.9,6.6,1.1,9.2,0.6c1.9-0.6,4.4-2.4,7.8-5.2
			c3.3-2.8,6.9-6.1,10.8-10c2.4-2.4,4.8-5,7.2-7.6c0.7,3.4,2.1,6.2,4.2,8.3c2.6,2.8,5.8,4.8,9.5,6.1c3.7,1.3,7.6,2,11.7,2
			c4.1,0,7.6-0.4,10.7-1.2c3.5-1,7.3-2.9,11.3-5.7c4.1-2.8,8.1-6.1,12.2-9.9c3-2.8,5.9-5.7,8.9-8.8c-0.1,2,0.1,3.9,0.6,5.6
			c1.3,3.7,3.5,6.9,6.6,9.4c3.1,2.6,6.6,4.7,10.5,6.4c3.9,1.7,7.7,2.7,11.6,3.1c3.9,0.4,7.1,0.2,9.6-0.5c2.8-1.2,5.5-3,8.1-5.2
			c2.7-2.3,5.4-4.6,8.3-7c4.3,3,9.4,5,15.1,6.2c5.7,1.2,10.1,1.2,13.1,0.2c2.3-0.7,5.1-2.9,8.4-6.5c1.5-1.7,3-3.5,4.5-5.3
			c-0.5,36.3-7.8,71.5-21.9,104.7c-14,33.2-34.2,63-59.8,88.6c-25.6,25.6-55.4,45.7-88.6,59.8c-34.4,14.5-70.9,21.9-108.5,21.9
			c-37.6,0-74.2-7.4-108.5-21.9c-33.2-14-63-34.2-88.6-59.8c-11.4-11.4-21.6-23.5-30.8-36.5C278.5,659.6,280,658.3,281,656.7z
			 M774,467.3c0.1-1.7-0.5-3.2-1.8-4.5c-1.3-1.3-2.9-2.4-4.8-3.2c-1.9-0.8-3.9-1.4-6.1-2c-2.2-0.5-4.3-0.9-6.2-1.2
			c-2.4,0-5.1,1.5-8.2,4.7c-0.9-2.1-2.5-3.8-4.6-5.3c-2.2-1.5-4.6-2.7-7.2-3.7c-2.6-1-5.2-1.6-7.7-1.8c-2.5-0.2-4.6-0.2-6.3,0.2
			c-2.6,0.5-6,2.8-10.3,6.9c-4.3,4.1-8.3,8.8-12.2,14.2c-1.3,1.9-2.6,3.8-3.7,5.7c-2.5,1.5-6.3,3.9-11.4,7.4
			c-5.5,3.7-11.2,7.4-16.9,11.1c-5.8,3.6-11,6.8-15.8,9.4c-4.8,2.6-7.6,3.6-8.3,2.9c-1.3-0.8-1.6-2.5-1-5.1c0.6-2.6,1.5-5.2,2.7-8
			c1.4-3.2,3.2-6.8,5.5-10.6c8.2-7.2,17-15.5,26.4-24.9c9.4-9.4,18.8-19.1,28.2-29.3c9.4-10.2,18.2-20.4,26.6-30.6
			c8.1-9.9,15.3-19.1,21.5-27.7c3.3,6.4,6.4,12.9,9.2,19.6c12.4,29.3,19.5,60.1,21.4,91.8c-2.8,2.7-5.4,5.2-7.9,7.4
			c-3.3,3.1-6.1,5.5-8.5,7.2c-2.3,1.8-3.9,2.5-4.7,2c-1-0.6-0.9-2.3,0.3-5c1.2-2.7,2.7-5.9,4.5-9.4c1.8-3.5,3.5-7,5.2-10.3
			C773.4,471.8,774.1,469.2,774,467.3z M739.4,479.8c-2.1,5-4.7,9.9-7.8,14.7c-3.1,4.8-6.5,8.9-10.2,12.2c-3.6,3.3-6.8,4.4-9.6,3.2
			c-1.2-0.4-1.4-2-0.6-4.8c0.8-2.8,2.1-6.1,4-9.7c1.8-3.6,4-7.5,6.7-11.6c2.6-4.1,5.2-7.5,7.8-10.4c2.6-2.9,5.1-4.9,7.3-6.1
			c2.3-1.2,4-0.7,5.1,1.3C742.4,471.2,741.4,474.8,739.4,479.8z M747.7,354.9c-2.1-3.4-4.2-6.8-6.4-10.2c2.7-3.1,5.1-5.7,7.2-7.6
			c3.2-2.9,5.3-3.8,6.4-2.7c1.6,1.8,0.8,5.7-2.3,11.9C751.2,349,749.6,351.9,747.7,354.9z M745.2,359c-1.8,2.8-3.8,5.8-6,9
			c-5.8,8.3-12.5,17.2-20.2,26.6c-7.6,9.4-15.1,18.5-22.3,27.2c-7.2,8.7-13.9,16.3-20,22.8c-6.1,6.5-10.6,11.1-13.5,13.8
			c15.7-24.7,30-46.4,42.8-65.3c5.5-7.9,10.9-15.7,16.2-23.2c5.3-7.5,10.2-14.2,14.7-19.8c0.5-0.6,1-1.3,1.5-1.9
			C740.8,351.7,743,355.4,745.2,359z M107.3,612c-20.5,10.8-38.2,21-53.2,30.6c8.5-14,18.7-29.5,30.6-46.7
			c4.8-6.9,9.7-13.8,14.9-20.7c2.3,12.3,5.1,24.5,8.5,36.4C107.8,611.8,107.5,611.9,107.3,612z M880.1,658.6
			c-20.5,48.5-49.9,92.1-87.3,129.5c-37.4,37.4-81,66.8-129.5,87.3c-50.2,21.3-103.6,32-158.6,32c-55,0-108.4-10.8-158.6-32
			c-48.5-20.5-92.1-49.9-129.5-87.3c-37.4-37.4-66.8-81-87.3-129.5c-4.6-10.9-8.7-21.9-12.3-33c16-7.6,32.1-14.8,48.2-21.4
			c19.8-8.1,40-15.6,60.7-22.6c2.4-0.8,4.7-1.6,7.1-2.3c5.3,18.3,12.4,35.8,21.1,52.3c-0.1,0.1-0.1,0.2-0.2,0.3
			c-4.4,7.6-8.4,14.6-12.1,21.1c-2.4,3.9-2.1,6.8,1,8.6c3.1,1.9,7.2,2.9,12.2,3.2c5.1,0.3,10.2-0.3,15.5-1.7
			c0.8-0.2,1.6-0.5,2.4-0.7c51.2,73,136,120.7,231.9,120.7c156.4,0,283.1-126.8,283.1-283.1c0-0.7,0-1.3,0-2
			c0.3-0.4,0.5-0.7,0.8-1.1c1.1,2.6,2.6,4.8,4.7,6.8c2.6,2.5,5.5,4.5,8.6,5.8c3.1,1.4,6.3,2.2,9.6,2.5c3.3,0.3,6.2,0.1,8.7-0.6
			c2.1-0.7,5.1-2.9,8.9-6.7c3.8-3.8,7.7-8.3,11.5-13.4c2.8,4.3,6,7.9,9.6,11c3.6,3,7.4,4,11.4,2.9c3-1,7.6-4.7,13.9-11
			c3.9-4,8.7-9.3,14.5-16.1c0,0,0,0,0,0c-0.3,5,1.1,9.5,4.1,13.3c3,3.8,6.6,6.8,10.7,9.1c2.5,1.3,4.9,2.4,7.4,3.1
			C911.6,557.4,900.9,609.5,880.1,658.6z M923.6,490.5c-3.5,2.2-6,2.4-7.3,0.8c-0.1-5.4-0.3-10.9-0.7-16.2c1.3-4,3.2-8.2,5.8-12.4
			c1.1,4.2,2.8,7.8,4.9,10.9c2.2,3,4.7,5.4,7.5,7C930.7,485,927.3,488.3,923.6,490.5z"/>
	</g>
	<g id="Polygon_1">
		<g>
			<polygon class="st3" points="536.1,146.9 512.3,146.3 504.4,123.8 496.4,146.3 472.6,146.9 491.5,161.4 484.7,184.2 504.4,170.7 
				524,184.2 517.2,161.4 			"/>
		</g>
	</g>
	<g id="Polygon_1_copy">
		<g>
			<polygon class="st3" points="641.1,165.1 617.3,164.5 609.4,142 601.5,164.5 577.6,165.1 596.5,179.6 589.8,202.4 609.4,188.9 
				629,202.4 622.2,179.6 			"/>
		</g>
	</g>
	<g id="Polygon_1_copy_2">
		<g>
			<polygon class="st3" points="431.1,165.1 407.3,164.5 399.3,142 391.4,164.5 367.6,165.1 386.5,179.6 379.7,202.4 399.3,188.9 
				419,202.4 412.2,179.6 			"/>
		</g>
	</g>
	<g id="Polygon_1_copy_3">
		<g>
			<polygon class="st3" points="741.7,207.7 717.9,207.1 709.9,184.6 702,207.1 678.2,207.7 697.1,222.2 690.3,245 709.9,231.5 
				729.6,245 722.8,222.2 			"/>
		</g>
	</g>
	<g id="Polygon_1_copy_3_1_">
		<g>
			<polygon class="st3" points="330.5,207.7 306.7,207.1 298.8,184.6 290.8,207.1 267,207.7 285.9,222.2 279.2,245 298.8,231.5 
				318.4,245 311.6,222.2 			"/>
		</g>
	</g>
</g>
</svg>
